<?xml version="1.0" encoding="utf-8"?>
<!-- Generator: Adobe Illustrator 26.2.1, SVG Export Plug-In . SVG Version: 6.00 Build 0)  -->
<svg version="1.1" id="Layer_1" xmlns="http://www.w3.org/2000/svg" xmlns:xlink="http://www.w3.org/1999/xlink" x="0px" y="0px"
	 viewBox="0 0 512 512" style="enable-background:new 0 0 512 512;" xml:space="preserve">
<g>
	<g>
		<path d="M272.64,55.06c-114.9,0-208,93.1-208,208s93.1,208,208,208s208-93.1,208-208S387.54,55.06,272.64,55.06z M272.64,469.76
			c-52.55,0-107.23-22.38-145.76-60.9s-60.94-93.2-60.94-145.8c0-58.01,27.92-117.96,73.33-157.34
			c36.85-31.97,86.24-49.36,133.37-49.36c50.51,0,103.22,20.44,141.22,56.48c41.07,38.94,65.48,95.58,65.48,150.22
			c0,49.1-19.17,100.44-53.52,138.01C386.65,443.91,328.64,469.76,272.64,469.76z"/>
	</g>
</g>
</svg>
